<svg height="76.17" width="52.965" xmlns="http://www.w3.org/2000/svg"><path d="M30.97 74.268l-27.4-18.64 18.709-28.717 27.4 18.64z" fill="#961a5a"/><path d="M31.862 72.738L7.856 56.407l-3.393-2.309.638 2.426 16.333-25.083 2.369-3.634-2.423.634 24.012 16.346 3.393 2.309-.638-2.423-16.338 25.08-2.369 3.637c-1.247 1.913 1.817 3.691 3.06 1.771l16.342-25.062 2.369-3.637a1.805 1.805 0 0 0-.634-2.423L26.564 27.69l-3.39-2.306a1.8 1.8 0 0 0-2.423.634L4.41 51.098l-2.369 3.637a1.8 1.8 0 0 0 .638 2.423l24.005 16.317 3.39 2.309c1.891 1.3 3.665-1.767 1.788-3.046z" fill="#961a5a"/><path d="M30.938 74.327L10.806 50.174l18.708-28.717 20.135 24.152z" fill="#ba1a5a"/><path d="M32.195 73.071L14.557 51.92l-2.5-3 .28 2.125 16.338-25.08 2.369-3.634-2.78.354 17.635 21.152 2.5 3-.262-2.125-16.346 25.083-2.366 3.637c-1.25 1.913 1.817 3.691 3.057 1.771l16.342-25.079 2.366-3.637a1.806 1.806 0 0 0-.276-2.146L33.258 23.203l-2.479-3a1.788 1.788 0 0 0-2.78.354L11.653 45.644l-2.369 3.637a1.817 1.817 0 0 0 .276 2.146l17.635 21.152 2.5 3c1.438 1.75 3.945-.765 2.5-2.508z" fill="#ba1a5a"/><path d="M30.984 74.194l-9.499-27.789 18.708-28.72 9.5 27.792z" fill="#da1a5a"/><path d="M32.691 73.723l-9.5-27.792-.177 1.364 16.338-25.079 2.369-3.637-3.235-.425 9.5 27.792.177-1.367-16.322 25.085-2.369 3.634c-1.247 1.916 1.817 3.694 3.057 1.789l15.417-23.663 2.9-4.459a2.759 2.759 0 0 0 .354-2.624c-1.491-4.657-3.166-9.269-4.75-13.9L41.9 17.214a1.792 1.792 0 0 0-3.234-.407L23.249 40.469l-2.9 4.456a2.752 2.752 0 0 0-.363 2.629c1.491 4.661 3.166 9.269 4.75 13.9l4.523 13.232c.748 2.122 4.172 1.201 3.432-.963z" fill="#da1a5a"/><g stroke-miterlimit="10"><path d="M51.364 45.97L30.425 75.232" fill="none" stroke="#da1a5a"/><circle cx="10.028" cy="5.26" fill="#961a5a" r="3.032" stroke="#961a5a"/><circle cx="50.517" cy="2.448" fill="#da1a5a" r="1.948" stroke="#da1a5a"/><circle cx="2.448" cy="24.099" fill="#ba1a5a" r="1.948" stroke="#ba1a5a"/></g></svg>