<svg xmlns="http://www.w3.org/2000/svg" width="52.965" height="76.17" viewBox="0 0 52.965 76.17"><g transform="translate(-39.01 -6.46)"><g transform="translate(40.802 31.591)"><path d="M75.579,128.887l-27.4-18.64L66.888,81.53l27.4,18.64Z" transform="translate(-46.401 -79.75)" fill="#961a5a"/><path d="M73.228,124.111,49.222,107.78l-3.393-2.309.638,2.426L62.8,82.814l2.369-3.634-2.423.634L86.758,96.16l3.393,2.309-.638-2.423L73.175,121.126l-2.369,3.637c-1.247,1.913,1.817,3.691,3.06,1.771l16.342-25.062,2.369-3.637a1.805,1.805,0,0,0-.634-2.423L67.93,79.063l-3.39-2.306a1.8,1.8,0,0,0-2.423.634L45.776,102.471l-2.369,3.637a1.8,1.8,0,0,0,.638,2.423L68.05,124.848l3.39,2.309C73.331,128.457,75.105,125.39,73.228,124.111Z" transform="translate(-43.158 -76.504)" fill="#961a5a"/></g><g transform="translate(48.051 26.141)"><path d="M88.742,119,68.61,94.847,87.318,66.13l20.135,24.152Z" transform="translate(-66.845 -64.354)" fill="#ba1a5a"/><path d="M86.78,114.506,69.142,93.355l-2.5-3,.28,2.125L83.26,67.4l2.369-3.634-2.78.354,17.635,21.152,2.5,3-.262-2.125L86.376,111.23l-2.366,3.637c-1.25,1.913,1.817,3.691,3.057,1.771l16.342-25.079,2.366-3.637a1.806,1.806,0,0,0-.276-2.146L87.843,64.638l-2.479-3a1.788,1.788,0,0,0-2.78.354L66.238,87.079l-2.369,3.637a1.817,1.817,0,0,0,.276,2.146l17.635,21.152,2.5,3C85.718,118.764,88.225,116.249,86.78,114.506Z" transform="translate(-63.626 -61.116)" fill="#ba1a5a"/></g><g transform="translate(58.816 22.418)"><path d="M108.259,111.989,98.76,84.2,117.468,55.48l9.5,27.792Z" transform="translate(-97.081 -53.753)" fill="#da1a5a"/><path d="M106.905,108.369l-9.5-27.792-.177,1.364,16.338-25.079,2.369-3.637L112.7,52.8l9.5,27.792.177-1.367L106.055,104.31l-2.369,3.634c-1.247,1.916,1.817,3.694,3.057,1.789L122.16,86.07l2.9-4.459a2.759,2.759,0,0,0,.354-2.624c-1.491-4.657-3.166-9.269-4.75-13.9L116.114,51.86a1.792,1.792,0,0,0-3.234-.407L97.463,75.115l-2.9,4.456A2.752,2.752,0,0,0,94.2,82.2c1.491,4.661,3.166,9.269,4.75,13.9l4.523,13.232C104.221,111.454,107.645,110.533,106.905,108.369Z" transform="translate(-94.02 -50.604)" fill="#da1a5a"/></g><line x1="20.939" y2="29.262" transform="translate(69.435 52.43)" fill="none" stroke="#da1a5a" stroke-miterlimit="10" stroke-width="1"/><circle cx="3.032" cy="3.032" r="3.032" transform="translate(46.006 8.688)" fill="#961a5a" stroke="#961a5a" stroke-miterlimit="10" stroke-width="1"/><circle cx="1.948" cy="1.948" r="1.948" transform="translate(87.579 6.96)" fill="#da1a5a" stroke="#da1a5a" stroke-miterlimit="10" stroke-width="1"/><circle cx="1.948" cy="1.948" r="1.948" transform="translate(39.51 28.611)" fill="#ba1a5a" stroke="#ba1a5a" stroke-miterlimit="10" stroke-width="1"/></g></svg>