<svg id="Attempt_number_1" data-name="Attempt number 1" xmlns="http://www.w3.org/2000/svg" width="226.24" height="226.24" viewBox="0 0 226.24 226.24">
  <defs>
    <style>
      .cls-1, .cls-5 {
        fill: #961a5a;
      }

      .cls-2, .cls-7 {
        fill: #ba1a5a;
      }

      .cls-3, .cls-6 {
        fill: #da1a5a;
      }

      .cls-4 {
        fill: none;
      }

      .cls-4, .cls-6 {
        stroke: #da1a5a;
      }

      .cls-4, .cls-5, .cls-6, .cls-7 {
        stroke-miterlimit: 10;
      }

      .cls-5 {
        stroke: #961a5a;
      }

      .cls-7 {
        stroke: #ba1a5a;
      }
    </style>
  </defs>
  <title>logo</title>
  <g>
    <g>
      <polygon class="cls-1" points="125.54 215.24 48.18 162.61 101 81.53 178.36 134.16 125.54 215.24"/>
      <path class="cls-1" d="M128.06,210.92,60.28,164.81l-9.58-6.52,1.8,6.85L98.63,94.32l6.69-10.26-6.84,1.79L166.26,132l9.58,6.52-1.8-6.84-46.13,70.81-6.69,10.27c-3.52,5.4,5.13,10.42,8.64,5L176,147l6.69-10.27c1.55-2.37.35-5.38-1.79-6.84L113.1,83.73l-9.57-6.51c-2.31-1.58-5.45-.35-6.84,1.79L50.55,149.82l-6.69,10.27c-1.55,2.37-.35,5.38,1.8,6.84L113.44,213l9.57,6.52C128.35,223.19,133.36,214.53,128.06,210.92Z"/>
    </g>
    <g>
      <polygon class="cls-2" points="125.45 215.4 68.61 147.21 121.43 66.13 178.28 134.32 125.45 215.4"/>
      <path class="cls-2" d="M129,211.86,79.2,152.14l-7.06-8.46.79,6,46.13-70.81,6.69-10.26-7.85,1,49.79,59.72,7.05,8.47L174,131.8l-46.14,70.81-6.68,10.27c-3.53,5.4,5.13,10.42,8.63,5l46.14-70.81,6.68-10.27c1.3-2,.61-4.39-.78-6.06L132,71.06,125,62.6c-2.17-2.61-6.24-1.46-7.85,1L71,134.42l-6.69,10.27c-1.29,2-.6,4.39.78,6.06l49.79,59.72,7.06,8.46C126,223.88,133.08,216.78,129,211.86Z"/>
    </g>
    <g>
      <polygon class="cls-3" points="125.58 215.03 98.76 136.56 151.58 55.48 178.4 133.95 125.58 215.03"/>
      <path class="cls-3" d="M130.4,213.7l-26.82-78.47-.5,3.85,46.13-70.81L155.9,58l-9.14-1.19,26.82,78.47.5-3.86L128,202.24l-6.69,10.26c-3.52,5.41,5.13,10.43,8.63,5.05l43.53-66.81,8.2-12.59a7.79,7.79,0,0,0,1-7.41c-4.21-13.15-8.94-26.17-13.41-39.24L156.4,54.15A5.06,5.06,0,0,0,147.27,53l-43.53,66.81-8.2,12.58a7.77,7.77,0,0,0-1,7.41c4.21,13.16,8.94,26.17,13.41,39.24l12.77,37.36C122.82,222.41,132.49,219.81,130.4,213.7Z"/>
    </g>
    <line class="cls-4" x1="183.12" y1="135.34" x2="124" y2="217.96"/>
    <circle class="cls-5" cx="66.41" cy="20.4" r="8.56"/>
    <circle class="cls-6" cx="180.73" cy="12.46" r="5.5"/>
    <circle class="cls-7" cx="45.01" cy="73.59" r="5.5"/>
  </g>
</svg>
